<svg xmlns="http://www.w3.org/2000/svg" viewBox="0 0 512 512">
  <!-- Background -->
  <rect width="512" height="512" rx="112" fill="#09090E"/>

  <!-- Pixel grid (3×3 squares) -->
  <rect x="58" y="58" width="118" height="118" rx="14" fill="#6C63FF"/>
  <rect x="197" y="58" width="118" height="118" rx="14" fill="#2C2C38"/>
  <rect x="336" y="58" width="118" height="118" rx="14" fill="#2C2C38"/>

  <rect x="58" y="197" width="118" height="118" rx="14" fill="#2C2C38"/>
  <rect x="197" y="197" width="118" height="118" rx="14" fill="#FF6B6B"/>
  <rect x="336" y="197" width="118" height="118" rx="14" fill="#6C63FF"/>

  <rect x="58" y="336" width="118" height="118" rx="14" fill="#2C2C38"/>
  <rect x="197" y="336" width="118" height="118" rx="14" fill="#6C63FF"/>
  <rect x="336" y="336" width="118" height="118" rx="14" fill="#3DDC97"/>

  <!-- Pencil overlay -->
  <g transform="translate(286,244) rotate(-45)">
    <rect x="0" y="0" width="52" height="166" rx="8" fill="#FFD166"/>
    <rect x="0" y="0" width="52" height="30" rx="8" fill="#E7E7EF"/>
    <polygon points="0,166 52,166 26,214" fill="#F0C040"/>
    <polygon points="10,194 42,194 26,214" fill="#1E1E1E"/>
  </g>
</svg>
