<svg xmlns="http://www.w3.org/2000/svg" viewBox="0 0 512 512">
  <!-- Background -->
  <rect width="512" height="512" rx="96" fill="#09090E"/>

  <!-- Pixel grid (3×3 squares) -->
  <rect x="80" y="80" width="100" height="100" rx="12" fill="#6C63FF"/>
  <rect x="206" y="80" width="100" height="100" rx="12" fill="#2C2C38"/>
  <rect x="332" y="80" width="100" height="100" rx="12" fill="#2C2C38"/>

  <rect x="80" y="206" width="100" height="100" rx="12" fill="#2C2C38"/>
  <rect x="206" y="206" width="100" height="100" rx="12" fill="#FF6B6B"/>
  <rect x="332" y="206" width="100" height="100" rx="12" fill="#6C63FF"/>

  <rect x="80" y="332" width="100" height="100" rx="12" fill="#2C2C38"/>
  <rect x="206" y="332" width="100" height="100" rx="12" fill="#6C63FF"/>
  <rect x="332" y="332" width="100" height="100" rx="12" fill="#3DDC97"/>

  <!-- Pencil overlay -->
  <g transform="translate(290,270) rotate(-45)">
    <rect x="0" y="0" width="40" height="130" rx="6" fill="#FFD166"/>
    <rect x="0" y="0" width="40" height="24" rx="6" fill="#E0E0E0"/>
    <polygon points="0,130 40,130 20,168" fill="#F0C040"/>
    <polygon points="8,152 32,152 20,168" fill="#1E1E1E"/>
  </g>
</svg>
